<mxfile host="65bd71144e">
    <diagram id="OZI0xvSy2VrPQLJ-8ldm" name="ページ1">
        <mxGraphModel dx="2510" dy="1137" grid="1" gridSize="10" guides="1" tooltips="1" connect="1" arrows="1" fold="1" page="1" pageScale="1" pageWidth="827" pageHeight="1169" math="0" shadow="0">
            <root>
                <mxCell id="0"/>
                <mxCell id="1" parent="0"/>
                <mxCell id="22" value="" style="endArrow=none;dashed=1;html=1;fontSize=12;" edge="1" parent="1">
                    <mxGeometry width="50" height="50" relative="1" as="geometry">
                        <mxPoint y="273" as="sourcePoint"/>
                        <mxPoint x="820" y="273" as="targetPoint"/>
                    </mxGeometry>
                </mxCell>
                <mxCell id="5" value="" style="rounded=0;whiteSpace=wrap;html=1;fontSize=12;" vertex="1" parent="1">
                    <mxGeometry x="160" y="98" width="510" height="140" as="geometry"/>
                </mxCell>
                <mxCell id="3" value="&lt;font style=&quot;font-size: 12px;&quot;&gt;price(⚪︎, MarketData)&lt;/font&gt;" style="rounded=0;whiteSpace=wrap;html=1;" vertex="1" parent="1">
                    <mxGeometry x="336" y="83" width="140" height="30" as="geometry"/>
                </mxCell>
                <mxCell id="4" value="validate(MarketData)" style="rounded=0;whiteSpace=wrap;html=1;" vertex="1" parent="1">
                    <mxGeometry x="341" y="132" width="130" height="30" as="geometry"/>
                </mxCell>
                <mxCell id="6" value="price_cpp(MarketData)" style="rounded=0;whiteSpace=wrap;html=1;" vertex="1" parent="1">
                    <mxGeometry x="331" y="184" width="150" height="30" as="geometry"/>
                </mxCell>
                <mxCell id="7" value="" style="endArrow=classic;html=1;fontSize=12;exitX=0.5;exitY=1;exitDx=0;exitDy=0;entryX=0.5;entryY=0;entryDx=0;entryDy=0;" edge="1" parent="1" source="4" target="6">
                    <mxGeometry width="50" height="50" relative="1" as="geometry">
                        <mxPoint x="806" y="209" as="sourcePoint"/>
                        <mxPoint x="856" y="159" as="targetPoint"/>
                    </mxGeometry>
                </mxCell>
                <mxCell id="8" value="" style="rounded=0;whiteSpace=wrap;html=1;fontSize=12;" vertex="1" parent="1">
                    <mxGeometry x="52.5" y="305" width="710" height="693" as="geometry"/>
                </mxCell>
                <mxCell id="10" value="&lt;font style=&quot;font-size: 18px;&quot;&gt;pricers_controller&lt;/font&gt;" style="ellipse;whiteSpace=wrap;html=1;fontSize=12;" vertex="1" parent="1">
                    <mxGeometry x="1.5" y="363" width="160" height="70" as="geometry"/>
                </mxCell>
                <mxCell id="21" style="edgeStyle=none;html=1;exitX=0.5;exitY=1;exitDx=0;exitDy=0;entryX=0.5;entryY=0;entryDx=0;entryDy=0;fontSize=12;" edge="1" parent="1" source="9" target="20">
                    <mxGeometry relative="1" as="geometry"/>
                </mxCell>
                <mxCell id="9" value="Converter(json_data)" style="rounded=0;whiteSpace=wrap;html=1;" vertex="1" parent="1">
                    <mxGeometry x="338" y="333" width="140" height="30" as="geometry"/>
                </mxCell>
                <mxCell id="15" style="edgeStyle=none;html=1;exitX=0.5;exitY=1;exitDx=0;exitDy=0;fontSize=12;entryX=0.5;entryY=0;entryDx=0;entryDy=0;" edge="1" parent="1" source="6" target="9">
                    <mxGeometry relative="1" as="geometry"/>
                </mxCell>
                <mxCell id="48" value="" style="rounded=0;whiteSpace=wrap;html=1;strokeColor=#000000;fontSize=12;" vertex="1" parent="1">
                    <mxGeometry x="84.5" y="555" width="650" height="390" as="geometry"/>
                </mxCell>
                <mxCell id="18" value="JSON" style="rounded=1;whiteSpace=wrap;html=1;fontSize=12;" vertex="1" parent="1">
                    <mxGeometry x="376" y="258" width="60" height="30" as="geometry"/>
                </mxCell>
                <mxCell id="31" value="" style="rounded=0;whiteSpace=wrap;html=1;imageWidth=30;strokeColor=#000000;" vertex="1" parent="1">
                    <mxGeometry x="329.5" y="675" width="160" height="120" as="geometry"/>
                </mxCell>
                <mxCell id="20" value="ModelGenerater(trade_data, parameters)" style="rounded=0;whiteSpace=wrap;html=1;" vertex="1" parent="1">
                    <mxGeometry x="288" y="435" width="240" height="30" as="geometry"/>
                </mxCell>
                <mxCell id="23" value="calculator(model1)" style="rounded=0;whiteSpace=wrap;html=1;imageWidth=30;" vertex="1" parent="1">
                    <mxGeometry x="334.5" y="655" width="150" height="30" as="geometry"/>
                </mxCell>
                <mxCell id="30" value="" style="rounded=0;whiteSpace=wrap;html=1;imageWidth=30;strokeColor=#000000;" vertex="1" parent="1">
                    <mxGeometry x="121.5" y="675" width="160" height="120" as="geometry"/>
                </mxCell>
                <mxCell id="53" value="" style="rounded=0;whiteSpace=wrap;html=1;strokeColor=#000000;fontSize=12;" vertex="1" parent="1">
                    <mxGeometry x="142" y="710" width="120" height="60" as="geometry"/>
                </mxCell>
                <mxCell id="25" value="calcurator(model0)" style="rounded=0;whiteSpace=wrap;html=1;imageWidth=30;" vertex="1" parent="1">
                    <mxGeometry x="127" y="655" width="150" height="30" as="geometry"/>
                </mxCell>
                <mxCell id="27" value="&lt;font style=&quot;font-size: 10px;&quot;&gt;analytic_BS&lt;/font&gt;" style="rounded=0;whiteSpace=wrap;html=1;" vertex="1" parent="1">
                    <mxGeometry x="161.5" y="732" width="80" height="30" as="geometry"/>
                </mxCell>
                <mxCell id="55" value="" style="rounded=0;whiteSpace=wrap;html=1;strokeColor=#000000;fontSize=12;" vertex="1" parent="1">
                    <mxGeometry x="343" y="713" width="130" height="60" as="geometry"/>
                </mxCell>
                <mxCell id="32" value="" style="rounded=0;whiteSpace=wrap;html=1;imageWidth=30;strokeColor=#000000;" vertex="1" parent="1">
                    <mxGeometry x="542.25" y="675" width="160" height="120" as="geometry"/>
                </mxCell>
                <mxCell id="28" value="&lt;font style=&quot;font-size: 10px;&quot;&gt;numeric_monte_carlo&lt;/font&gt;" style="rounded=0;whiteSpace=wrap;html=1;" vertex="1" parent="1">
                    <mxGeometry x="348.25" y="735" width="120" height="30" as="geometry"/>
                </mxCell>
                <mxCell id="57" value="" style="rounded=0;whiteSpace=wrap;html=1;strokeColor=#000000;fontSize=12;" vertex="1" parent="1">
                    <mxGeometry x="547" y="710" width="150" height="65" as="geometry"/>
                </mxCell>
                <mxCell id="24" value="calculator(model2)" style="rounded=0;whiteSpace=wrap;html=1;imageWidth=30;" vertex="1" parent="1">
                    <mxGeometry x="552" y="655" width="140" height="30" as="geometry"/>
                </mxCell>
                <mxCell id="29" value="&lt;font style=&quot;font-size: 10px;&quot;&gt;numeric_monte_carlo&lt;/font&gt;" style="rounded=0;whiteSpace=wrap;html=1;" vertex="1" parent="1">
                    <mxGeometry x="561.5" y="735" width="120" height="30" as="geometry"/>
                </mxCell>
                <mxCell id="34" style="edgeStyle=none;html=1;entryX=0.5;entryY=0;entryDx=0;entryDy=0;fontSize=12;" edge="1" parent="1" target="25">
                    <mxGeometry relative="1" as="geometry">
                        <mxPoint x="414" y="603" as="sourcePoint"/>
                        <mxPoint x="418" y="535" as="targetPoint"/>
                        <Array as="points">
                            <mxPoint x="202" y="603"/>
                        </Array>
                    </mxGeometry>
                </mxCell>
                <mxCell id="36" style="edgeStyle=none;html=1;exitX=0.5;exitY=1;exitDx=0;exitDy=0;fontSize=12;" edge="1" parent="1" source="20" target="23">
                    <mxGeometry relative="1" as="geometry">
                        <mxPoint x="418" y="475" as="sourcePoint"/>
                        <mxPoint x="212" y="546" as="targetPoint"/>
                    </mxGeometry>
                </mxCell>
                <mxCell id="37" style="edgeStyle=none;html=1;fontSize=12;entryX=0.5;entryY=0;entryDx=0;entryDy=0;" edge="1" parent="1" target="24">
                    <mxGeometry relative="1" as="geometry">
                        <mxPoint x="412" y="603" as="sourcePoint"/>
                        <mxPoint x="419.2383720930229" y="636" as="targetPoint"/>
                        <Array as="points">
                            <mxPoint x="622" y="603"/>
                        </Array>
                    </mxGeometry>
                </mxCell>
                <mxCell id="41" value="" style="endArrow=classic;html=1;fontSize=12;entryX=0;entryY=0.5;entryDx=0;entryDy=0;" edge="1" parent="1" source="30" target="51">
                    <mxGeometry width="50" height="50" relative="1" as="geometry">
                        <mxPoint x="201.5" y="835" as="sourcePoint"/>
                        <mxPoint x="554" y="663" as="targetPoint"/>
                        <Array as="points">
                            <mxPoint x="202" y="865"/>
                        </Array>
                    </mxGeometry>
                </mxCell>
                <mxCell id="42" value="" style="endArrow=classic;html=1;fontSize=12;exitX=0.5;exitY=1;exitDx=0;exitDy=0;entryX=0.5;entryY=0;entryDx=0;entryDy=0;" edge="1" parent="1" source="31" target="51">
                    <mxGeometry width="50" height="50" relative="1" as="geometry">
                        <mxPoint x="409.4999999999998" y="835" as="sourcePoint"/>
                        <mxPoint x="214" y="808" as="targetPoint"/>
                    </mxGeometry>
                </mxCell>
                <mxCell id="43" value="" style="endArrow=classic;html=1;fontSize=12;exitX=0.5;exitY=1;exitDx=0;exitDy=0;entryX=1;entryY=0.5;entryDx=0;entryDy=0;" edge="1" parent="1" source="32" target="51">
                    <mxGeometry width="50" height="50" relative="1" as="geometry">
                        <mxPoint x="622.25" y="835" as="sourcePoint"/>
                        <mxPoint x="434" y="915" as="targetPoint"/>
                        <Array as="points">
                            <mxPoint x="622" y="865"/>
                        </Array>
                    </mxGeometry>
                </mxCell>
                <mxCell id="49" value="price_controller(models)" style="rounded=0;whiteSpace=wrap;html=1;strokeColor=#000000;fontSize=12;" vertex="1" parent="1">
                    <mxGeometry x="334" y="536" width="150" height="30" as="geometry"/>
                </mxCell>
                <mxCell id="51" value="total_PV&lt;span style=&quot;color: rgba(0, 0, 0, 0); font-family: monospace; font-size: 0px; text-align: start;&quot;&gt;%3CmxGraphModel%3E%3Croot%3E%3CmxCell%20id%3D%220%22%2F%3E%3CmxCell%20id%3D%221%22%20parent%3D%220%22%2F%3E%3CmxCell%20id%3D%222%22%20value%3D%22JSON%22%20style%3D%22rounded%3D1%3BwhiteSpace%3Dwrap%3Bhtml%3D1%3BfontSize%3D12%3B%22%20vertex%3D%221%22%20parent%3D%221%22%3E%3CmxGeometry%20x%3D%22354%22%20y%3D%22190%22%20width%3D%2260%22%20height%3D%2230%22%20as%3D%22geometry%22%2F%3E%3C%2FmxCell%3E%3C%2Froot%3E%3C%2FmxGraphModel%3E&lt;/span&gt;" style="rounded=1;whiteSpace=wrap;html=1;fontSize=12;flipH=1;" vertex="1" parent="1">
                    <mxGeometry x="380" y="905" width="60" height="30" as="geometry"/>
                </mxCell>
                <mxCell id="38" value="PV&lt;span style=&quot;color: rgba(0, 0, 0, 0); font-family: monospace; font-size: 0px; text-align: start;&quot;&gt;%3CmxGraphModel%3E%3Croot%3E%3CmxCell%20id%3D%220%22%2F%3E%3CmxCell%20id%3D%221%22%20parent%3D%220%22%2F%3E%3CmxCell%20id%3D%222%22%20value%3D%22JSON%22%20style%3D%22rounded%3D1%3BwhiteSpace%3Dwrap%3Bhtml%3D1%3BfontSize%3D12%3B%22%20vertex%3D%221%22%20parent%3D%221%22%3E%3CmxGeometry%20x%3D%22354%22%20y%3D%22190%22%20width%3D%2260%22%20height%3D%2230%22%20as%3D%22geometry%22%2F%3E%3C%2FmxCell%3E%3C%2Froot%3E%3C%2FmxGraphModel%3E&lt;/span&gt;" style="rounded=1;whiteSpace=wrap;html=1;fontSize=12;flipH=1;" vertex="1" parent="1">
                    <mxGeometry x="171.5" y="833" width="60" height="30" as="geometry"/>
                </mxCell>
                <mxCell id="39" value="PV&lt;span style=&quot;color: rgba(0, 0, 0, 0); font-family: monospace; font-size: 0px; text-align: start;&quot;&gt;%3CmxGraphModel%3E%3Croot%3E%3CmxCell%20id%3D%220%22%2F%3E%3CmxCell%20id%3D%221%22%20parent%3D%220%22%2F%3E%3CmxCell%20id%3D%222%22%20value%3D%22JSON%22%20style%3D%22rounded%3D1%3BwhiteSpace%3Dwrap%3Bhtml%3D1%3BfontSize%3D12%3B%22%20vertex%3D%221%22%20parent%3D%221%22%3E%3CmxGeometry%20x%3D%22354%22%20y%3D%22190%22%20width%3D%2260%22%20height%3D%2230%22%20as%3D%22geometry%22%2F%3E%3C%2FmxCell%3E%3C%2Froot%3E%3C%2FmxGraphModel%3E&lt;/span&gt;" style="rounded=1;whiteSpace=wrap;html=1;fontSize=12;flipH=1;" vertex="1" parent="1">
                    <mxGeometry x="379.5" y="833" width="60" height="30" as="geometry"/>
                </mxCell>
                <mxCell id="40" value="PV&lt;span style=&quot;color: rgba(0, 0, 0, 0); font-family: monospace; font-size: 0px; text-align: start;&quot;&gt;%3CmxGraphModel%3E%3Croot%3E%3CmxCell%20id%3D%220%22%2F%3E%3CmxCell%20id%3D%221%22%20parent%3D%220%22%2F%3E%3CmxCell%20id%3D%222%22%20value%3D%22JSON%22%20style%3D%22rounded%3D1%3BwhiteSpace%3Dwrap%3Bhtml%3D1%3BfontSize%3D12%3B%22%20vertex%3D%221%22%20parent%3D%221%22%3E%3CmxGeometry%20x%3D%22354%22%20y%3D%22190%22%20width%3D%2260%22%20height%3D%2230%22%20as%3D%22geometry%22%2F%3E%3C%2FmxCell%3E%3C%2Froot%3E%3C%2FmxGraphModel%3E&lt;/span&gt;" style="rounded=1;whiteSpace=wrap;html=1;fontSize=12;flipH=1;" vertex="1" parent="1">
                    <mxGeometry x="592.5" y="833" width="60" height="30" as="geometry"/>
                </mxCell>
                <mxCell id="52" value="model0.calc()" style="rounded=0;whiteSpace=wrap;html=1;strokeColor=#000000;fontSize=12;" vertex="1" parent="1">
                    <mxGeometry x="155.5" y="694" width="91" height="31" as="geometry"/>
                </mxCell>
                <mxCell id="56" value="model1.calc()" style="rounded=0;whiteSpace=wrap;html=1;strokeColor=#000000;fontSize=12;" vertex="1" parent="1">
                    <mxGeometry x="361.5" y="697" width="91" height="31" as="geometry"/>
                </mxCell>
                <mxCell id="58" value="model2.calc()" style="rounded=0;whiteSpace=wrap;html=1;strokeColor=#000000;fontSize=12;" vertex="1" parent="1">
                    <mxGeometry x="576" y="694" width="91" height="31" as="geometry"/>
                </mxCell>
                <mxCell id="59" value="&lt;font style=&quot;font-size: 12px;&quot;&gt;models&lt;/font&gt;" style="rounded=1;whiteSpace=wrap;html=1;strokeColor=#000000;fontSize=10;" vertex="1" parent="1">
                    <mxGeometry x="379" y="489" width="60" height="30" as="geometry"/>
                </mxCell>
                <mxCell id="60" value="&lt;font style=&quot;font-size: 12px;&quot;&gt;model0&lt;/font&gt;" style="rounded=1;whiteSpace=wrap;html=1;strokeColor=#000000;fontSize=10;" vertex="1" parent="1">
                    <mxGeometry x="172" y="593" width="60" height="30" as="geometry"/>
                </mxCell>
                <mxCell id="61" value="&lt;font style=&quot;font-size: 12px;&quot;&gt;model1&lt;/font&gt;" style="rounded=1;whiteSpace=wrap;html=1;strokeColor=#000000;fontSize=10;" vertex="1" parent="1">
                    <mxGeometry x="382" y="593" width="60" height="30" as="geometry"/>
                </mxCell>
                <mxCell id="62" value="&lt;font style=&quot;font-size: 12px;&quot;&gt;model2&lt;/font&gt;" style="rounded=1;whiteSpace=wrap;html=1;strokeColor=#000000;fontSize=10;" vertex="1" parent="1">
                    <mxGeometry x="591.5" y="593" width="60" height="30" as="geometry"/>
                </mxCell>
                <mxCell id="65" value="&lt;font style=&quot;font-size: 14px;&quot;&gt;Python&lt;/font&gt;" style="shape=hexagon;perimeter=hexagonPerimeter2;whiteSpace=wrap;html=1;fixedSize=1;strokeColor=#000000;fontSize=18;" vertex="1" parent="1">
                    <mxGeometry x="750" y="228" width="70" height="40" as="geometry"/>
                </mxCell>
                <mxCell id="66" value="&lt;font style=&quot;font-size: 14px;&quot;&gt;C++&lt;/font&gt;" style="shape=hexagon;perimeter=hexagonPerimeter2;whiteSpace=wrap;html=1;fixedSize=1;strokeColor=#000000;fontSize=18;" vertex="1" parent="1">
                    <mxGeometry x="750" y="278" width="70" height="40" as="geometry"/>
                </mxCell>
                <mxCell id="67" value="&lt;font style=&quot;font-size: 12px;&quot;&gt;trade_data, parameters&lt;/font&gt;" style="rounded=1;whiteSpace=wrap;html=1;strokeColor=#000000;fontSize=10;" vertex="1" parent="1">
                    <mxGeometry x="333" y="384" width="150" height="30" as="geometry"/>
                </mxCell>
                <mxCell id="68" value="&lt;font style=&quot;font-size: 18px;&quot;&gt;pricer_API&lt;/font&gt;" style="ellipse;whiteSpace=wrap;html=1;fontSize=12;" vertex="1" parent="1">
                    <mxGeometry x="81.5" y="133" width="160" height="70" as="geometry"/>
                </mxCell>
                <mxCell id="70" value="" style="endArrow=classic;html=1;fontSize=14;exitX=0.5;exitY=1;exitDx=0;exitDy=0;" edge="1" parent="1" source="51">
                    <mxGeometry width="50" height="50" relative="1" as="geometry">
                        <mxPoint x="460" y="1008" as="sourcePoint"/>
                        <mxPoint x="580" y="68" as="targetPoint"/>
                        <Array as="points">
                            <mxPoint x="410" y="1028"/>
                            <mxPoint x="790" y="1028"/>
                            <mxPoint x="790" y="498"/>
                            <mxPoint x="580" y="288"/>
                        </Array>
                    </mxGeometry>
                </mxCell>
                <mxCell id="71" value="total_PV&lt;span style=&quot;color: rgba(0, 0, 0, 0); font-family: monospace; font-size: 0px; text-align: start;&quot;&gt;%3CmxGraphModel%3E%3Croot%3E%3CmxCell%20id%3D%220%22%2F%3E%3CmxCell%20id%3D%221%22%20parent%3D%220%22%2F%3E%3CmxCell%20id%3D%222%22%20value%3D%22JSON%22%20style%3D%22rounded%3D1%3BwhiteSpace%3Dwrap%3Bhtml%3D1%3BfontSize%3D12%3B%22%20vertex%3D%221%22%20parent%3D%221%22%3E%3CmxGeometry%20x%3D%22354%22%20y%3D%22190%22%20width%3D%2260%22%20height%3D%2230%22%20as%3D%22geometry%22%2F%3E%3C%2FmxCell%3E%3C%2Froot%3E%3C%2FmxGraphModel%3E&lt;/span&gt;" style="rounded=1;whiteSpace=wrap;html=1;fontSize=12;flipH=1;" vertex="1" parent="1">
                    <mxGeometry x="547" y="162" width="60" height="30" as="geometry"/>
                </mxCell>
                <mxCell id="74" value="&lt;font style=&quot;font-size: 14px;&quot;&gt;import from pricers&lt;br&gt;※ pricersはpydファイル&lt;br&gt;&lt;/font&gt;" style="whiteSpace=wrap;html=1;rounded=1;arcSize=50;align=center;verticalAlign=middle;strokeWidth=1;autosize=1;spacing=4;treeFolding=1;treeMoving=1;newEdgeStyle={&quot;edgeStyle&quot;:&quot;entityRelationEdgeStyle&quot;,&quot;startArrow&quot;:&quot;none&quot;,&quot;endArrow&quot;:&quot;none&quot;,&quot;segment&quot;:10,&quot;curved&quot;:1,&quot;sourcePerimeterSpacing&quot;:0,&quot;targetPerimeterSpacing&quot;:0};strokeColor=#000000;fontSize=14;" vertex="1" parent="1">
                    <mxGeometry x="74" y="20" width="190" height="50" as="geometry"/>
                </mxCell>
                <mxCell id="75" value="" style="edgeStyle=entityRelationEdgeStyle;startArrow=none;endArrow=none;segment=10;curved=1;sourcePerimeterSpacing=0;targetPerimeterSpacing=0;fontSize=14;exitX=0;exitY=0.5;exitDx=0;exitDy=0;" edge="1" target="74" parent="1" source="3">
                    <mxGeometry relative="1" as="geometry">
                        <mxPoint x="340" y="80" as="sourcePoint"/>
                    </mxGeometry>
                </mxCell>
            </root>
        </mxGraphModel>
    </diagram>
</mxfile>